# xmcd
#
# Track frame offsets:
#  150
#  13238
#  28152
#  42536
#  58131
#  74081
#  93507
#  99125
#  106432
#  124505
#  136574
#  146804
#  162244
#  180051
#  203531
#  217545
#  221554
#  226736
#  239198
#  241755
#  257390
#  270710
#  285044
#
# Disc length: 4008 seconds
#
# Revision: 0
# Processed by: cddbd v1.5.1PL2 Copyright (c) Steve Scherf et al.
# Submitted via: Collectorz.com_Music_Collector 6.9
#
DISCID=3b0fa617
DTITLE=Malcolm Holcombe - Live In Austin, Tx - 22 July 2005
DYEAR=2005
DGENRE=
TTITLE0=Sittin' Sad
TTITLE1=Mama Told Me So
TTITLE2=Teaching Michael Anthony Your Name
TTITLE3=Cathy's Creek
TTITLE4=To The Homeland
TTITLE5=Gone By The Ol' Sunrise
TTITLE6=Kiss Me When I'm Sleepin'
TTITLE7=Buzz Killer
TTITLE8=Your Eyes Will Shine For Me Again
TTITLE9=Flowers In Bloom
TTITLE10=Fifty Years
TTITLE11=For The Love Of A Good Woman
TTITLE12=Captured By Paradise
TTITLE13=The Station
TTITLE14=Who Carried You
TTITLE15=Can We Smoke Outside?
TTITLE16=Intro To You Don't Come See Me Anymore
TTITLE17=You Don't Come See Me Anymore
TTITLE18=Intro (Set 2)
TTITLE19=A Hundred Lies
TTITLE20=Not Who You're Thinkin' Of
TTITLE21=A Far Cry From Here
TTITLE22=I Never Heard You Knockin'
EXTD=
EXTT0=
EXTT1=
EXTT2=
EXTT3=
EXTT4=
EXTT5=
EXTT6=
EXTT7=
EXTT8=
EXTT9=
EXTT10=
EXTT11=
EXTT12=
EXTT13=
EXTT14=
EXTT15=
EXTT16=
EXTT17=
EXTT18=
EXTT19=
EXTT20=
EXTT21=
EXTT22=
PLAYORDER=
